<svg width="128" height="129" viewBox="0 0 128 129" fill="none" xmlns="http://www.w3.org/2000/svg">
<g clip-path="url(#clip0)">
<rect y="0.5" width="148.828" height="148.828" fill="#EEF1F7"/>
<path d="M44.2408 16.8511L40.4438 33.4453H33.9749L32.053 24.0232L30.1311 33.4453H23.6621L19.8652 16.8511H25.4669L26.9669 27.3045L29.217 16.8511H34.889L37.1391 27.3045L38.6391 16.8511H44.2408ZM56.7476 30.9374H51.2162L50.3959 33.4453H44.9348L51.0053 16.8511H57.0054L63.0525 33.4453H57.5679L56.7476 30.9374ZM55.4819 27.0233L53.9819 22.406L52.4819 27.0233H55.4819ZM75.9537 16.8511V20.9762H69.4379V23.2732H74.1255V27.1873H69.4379V33.4453H64.2346V16.8511H75.9537ZM82.9194 20.9997V23.0388H88.0757V26.953H82.9194V29.2968H88.7789V33.4453H77.7161V16.8511H88.7789V20.9997H82.9194ZM99.0838 33.4453L95.9665 27.492H95.9431V33.4453H90.7398V16.8511H98.4744C99.8182 16.8511 100.967 17.0933 101.92 17.5777C102.873 18.0465 103.584 18.6949 104.053 19.5231C104.537 20.3356 104.779 21.2575 104.779 22.2888C104.779 23.3982 104.467 24.3826 103.842 25.242C103.232 26.1014 102.35 26.7186 101.193 27.0936L104.803 33.4453H99.0838ZM95.9431 24.0232H98.0056C98.5057 24.0232 98.8807 23.9138 99.1307 23.6951C99.3807 23.4607 99.5057 23.1013 99.5057 22.6169C99.5057 22.1794 99.3729 21.8356 99.1072 21.5856C98.8572 21.3356 98.49 21.2106 98.0056 21.2106H95.9431V24.0232Z" fill="#326FA8"/>
<path d="M35.1091 110.25H29.5771L28.7567 112.758H23.295L29.3662 96.1619H35.367L41.4147 112.758H35.9296L35.1091 110.25ZM33.8433 106.335L32.3431 101.717L30.8429 106.335H33.8433ZM47.6836 96.1619V105.515C47.6836 106.28 47.8477 106.89 48.1758 107.343C48.5196 107.781 49.0666 107.999 49.8167 107.999C50.5668 107.999 51.1216 107.781 51.481 107.343C51.8404 106.89 52.0201 106.28 52.0201 105.515V96.1619H57.2005V105.515C57.2005 107.093 56.8723 108.445 56.216 109.57C55.5597 110.68 54.6611 111.516 53.5203 112.078C52.3795 112.641 51.1059 112.922 49.6995 112.922C48.2931 112.922 47.0429 112.641 45.949 112.078C44.8707 111.516 44.0268 110.68 43.4174 109.57C42.8079 108.46 42.5032 107.109 42.5032 105.515V96.1619H47.6836ZM66.36 96.1619C68.0946 96.1619 69.6104 96.5135 70.9075 97.2168C72.2201 97.92 73.2281 98.8967 73.9313 100.147C74.6345 101.397 74.9861 102.819 74.9861 104.413C74.9861 105.991 74.6345 107.413 73.9313 108.679C73.2281 109.945 72.2201 110.945 70.9075 111.68C69.6104 112.399 68.0946 112.758 66.36 112.758H59.445V96.1619H66.36ZM65.8911 108.117C67.0632 108.117 67.993 107.796 68.6806 107.156C69.3682 106.515 69.712 105.601 69.712 104.413C69.712 103.225 69.3682 102.311 68.6806 101.67C67.993 101.03 67.0632 100.709 65.8911 100.709H64.6488V108.117H65.8911ZM82.0691 96.1619V112.758H76.8652V96.1619H82.0691ZM92.5064 112.922C90.9437 112.922 89.506 112.555 88.1933 111.82C86.8963 111.086 85.8649 110.07 85.0991 108.773C84.3334 107.476 83.9506 106.015 83.9506 104.39C83.9506 102.764 84.3334 101.303 85.0991 100.006C85.8649 98.7091 86.8963 97.7012 88.1933 96.9824C89.506 96.2479 90.9437 95.8806 92.5064 95.8806C94.0691 95.8806 95.499 96.2479 96.796 96.9824C98.0931 97.7012 99.1167 98.7091 99.8668 100.006C100.633 101.303 101.015 102.764 101.015 104.39C101.015 106.015 100.633 107.476 99.8668 108.773C99.1167 110.07 98.0853 111.086 96.7726 111.82C95.4756 112.555 94.0535 112.922 92.5064 112.922ZM92.5064 108.07C93.5378 108.07 94.3348 107.742 94.8974 107.085C95.4599 106.413 95.7412 105.515 95.7412 104.39C95.7412 103.249 95.4599 102.35 94.8974 101.694C94.3348 101.022 93.5378 100.686 92.5064 100.686C91.4594 100.686 90.6546 101.022 90.092 101.694C89.5294 102.35 89.2481 103.249 89.2481 104.39C89.2481 105.515 89.5294 106.413 90.092 107.085C90.6546 107.742 91.4594 108.07 92.5064 108.07Z" fill="#326FA8"/>
<g clip-path="url(#clip1)">
<path d="M62.5078 38.7219C48.5006 38.7219 37.105 50.1176 37.105 64.1247C37.105 78.1343 48.5006 89.5275 62.5078 89.5275C76.5149 89.5275 87.9105 78.1343 87.9105 64.1247C87.9106 50.1176 76.5149 38.7219 62.5078 38.7219ZM62.5078 84.447C51.3026 84.447 42.1855 75.33 42.1855 64.1247C42.1855 52.9194 51.3026 43.8025 62.5078 43.8025C73.7129 43.8025 82.83 52.9196 82.83 64.1247C82.83 75.3298 73.713 84.447 62.5078 84.447Z" fill="#326FA8"/>
<path d="M57.4273 74.2859L72.669 64.1246L57.4273 53.9636V74.2859Z" fill="#326FA8"/>
</g>
</g>
<defs>
<clipPath id="clip0">
<rect width="128" height="128" fill="white" transform="translate(0 0.5)"/>
</clipPath>
<clipPath id="clip1">
<rect width="50.8057" height="50.8057" fill="white" transform="translate(37.105 38.7219)"/>
</clipPath>
</defs>
</svg>
